<?xml version="1.0" encoding="UTF-8" standalone="no"?>
<!DOCTYPE svg PUBLIC "-//W3C//DTD SVG 1.1//EN"
 "http://www.w3.org/Graphics/SVG/1.1/DTD/svg11.dtd">
<!-- Generated by graphviz version 2.43.0 (0)
 -->
<!-- Title: finite_state_machine Pages: 1 -->
<svg width="420pt" height="164pt"
 viewBox="0.00 0.00 420.00 164.00" xmlns="http://www.w3.org/2000/svg" xmlns:xlink="http://www.w3.org/1999/xlink">
<g id="graph0" class="graph" transform="scale(1 1) rotate(0) translate(4 160)">
<title>finite_state_machine</title>
<polygon fill="white" stroke="transparent" points="-4,4 -4,-160 416,-160 416,4 -4,4"/>
<!-- 0 -->
<g id="node1" class="node">
<title>0</title>
<ellipse fill="none" stroke="black" cx="22" cy="-72" rx="18" ry="18"/>
<ellipse fill="none" stroke="black" cx="22" cy="-72" rx="22" ry="22"/>
<text text-anchor="middle" x="22" y="-68.3" font-family="Helvetica,Arial,sans-serif" font-size="14.00">0</text>
</g>
<!-- 3 -->
<g id="node2" class="node">
<title>3</title>
<ellipse fill="none" stroke="black" cx="118" cy="-72" rx="18" ry="18"/>
<ellipse fill="none" stroke="black" cx="118" cy="-72" rx="22" ry="22"/>
<text text-anchor="middle" x="118" y="-68.3" font-family="Helvetica,Arial,sans-serif" font-size="14.00">3</text>
</g>
<!-- 0&#45;&gt;3 -->
<g id="edge9" class="edge">
<title>0&#45;&gt;3</title>
<path fill="none" stroke="black" d="M44.33,-72C56.47,-72 71.9,-72 85.42,-72"/>
<polygon fill="black" stroke="black" points="85.75,-75.5 95.75,-72 85.75,-68.5 85.75,-75.5"/>
<text text-anchor="middle" x="70" y="-75.8" font-family="Helvetica,Arial,sans-serif" font-size="14.00">10</text>
</g>
<!-- 1 -->
<g id="node6" class="node">
<title>1</title>
<ellipse fill="none" stroke="black" cx="210" cy="-129" rx="18" ry="18"/>
<text text-anchor="middle" x="210" y="-125.3" font-family="Helvetica,Arial,sans-serif" font-size="14.00">1</text>
</g>
<!-- 0&#45;&gt;1 -->
<g id="edge8" class="edge">
<title>0&#45;&gt;1</title>
<path fill="none" stroke="black" d="M41.84,-81.72C48.18,-84.84 55.33,-88.21 62,-91 103.24,-108.26 114.37,-111.29 158,-121 165.7,-122.71 174.13,-124.19 181.88,-125.4"/>
<polygon fill="black" stroke="black" points="181.5,-128.88 191.9,-126.87 182.51,-121.96 181.5,-128.88"/>
<text text-anchor="middle" x="118" y="-119.8" font-family="Helvetica,Arial,sans-serif" font-size="14.00">7</text>
</g>
<!-- 2 -->
<g id="node7" class="node">
<title>2</title>
<ellipse fill="none" stroke="black" cx="210" cy="-18" rx="18" ry="18"/>
<text text-anchor="middle" x="210" y="-14.3" font-family="Helvetica,Arial,sans-serif" font-size="14.00">2</text>
</g>
<!-- 0&#45;&gt;2 -->
<g id="edge10" class="edge">
<title>0&#45;&gt;2</title>
<path fill="none" stroke="black" d="M39.48,-58.25C53.54,-47.39 74.79,-32.95 96,-26 124.24,-16.75 158.5,-15.63 181.84,-16.27"/>
<polygon fill="black" stroke="black" points="181.91,-19.78 192.04,-16.68 182.19,-12.78 181.91,-19.78"/>
<text text-anchor="middle" x="118" y="-29.8" font-family="Helvetica,Arial,sans-serif" font-size="14.00">16</text>
</g>
<!-- 4 -->
<g id="node3" class="node">
<title>4</title>
<ellipse fill="none" stroke="black" cx="302" cy="-75" rx="18" ry="18"/>
<ellipse fill="none" stroke="black" cx="302" cy="-75" rx="22" ry="22"/>
<text text-anchor="middle" x="302" y="-71.3" font-family="Helvetica,Arial,sans-serif" font-size="14.00">4</text>
</g>
<!-- 3&#45;&gt;4 -->
<g id="edge6" class="edge">
<title>3&#45;&gt;4</title>
<path fill="none" stroke="black" d="M140.23,-72.35C172.15,-72.88 232.69,-73.87 269.68,-74.48"/>
<polygon fill="black" stroke="black" points="269.84,-77.99 279.9,-74.65 269.96,-70.99 269.84,-77.99"/>
<text text-anchor="middle" x="210" y="-76.8" font-family="Helvetica,Arial,sans-serif" font-size="14.00">5</text>
</g>
<!-- 3&#45;&gt;1 -->
<g id="edge4" class="edge">
<title>3&#45;&gt;1</title>
<path fill="none" stroke="black" d="M137.41,-83.21C148.13,-89.78 161.88,-98.28 174,-106 177.9,-108.49 182.02,-111.16 186.01,-113.76"/>
<polygon fill="black" stroke="black" points="184.13,-116.72 194.41,-119.29 187.98,-110.87 184.13,-116.72"/>
<text text-anchor="middle" x="166" y="-109.8" font-family="Helvetica,Arial,sans-serif" font-size="14.00">11</text>
</g>
<!-- 3&#45;&gt;2 -->
<g id="edge5" class="edge">
<title>3&#45;&gt;2</title>
<path fill="none" stroke="black" d="M135.61,-58.59C142.36,-53.43 150.36,-47.66 158,-43 166.11,-38.06 175.33,-33.29 183.69,-29.28"/>
<polygon fill="black" stroke="black" points="185.4,-32.34 192.98,-24.93 182.44,-26 185.4,-32.34"/>
<text text-anchor="middle" x="166" y="-46.8" font-family="Helvetica,Arial,sans-serif" font-size="14.00">2</text>
</g>
<!-- 5 -->
<g id="node5" class="node">
<title>5</title>
<ellipse fill="none" stroke="black" cx="394" cy="-106" rx="18" ry="18"/>
<text text-anchor="middle" x="394" y="-102.3" font-family="Helvetica,Arial,sans-serif" font-size="14.00">5</text>
</g>
<!-- 4&#45;&gt;5 -->
<g id="edge1" class="edge">
<title>4&#45;&gt;5</title>
<path fill="none" stroke="black" d="M322.97,-81.88C335.98,-86.36 353.06,-92.24 367.11,-97.08"/>
<polygon fill="black" stroke="black" points="366.09,-100.43 376.69,-100.38 368.37,-93.82 366.09,-100.43"/>
<text text-anchor="middle" x="350" y="-96.8" font-family="Helvetica,Arial,sans-serif" font-size="14.00">14</text>
</g>
<!-- 8 -->
<g id="node4" class="node">
<title>8</title>
<ellipse fill="none" stroke="black" cx="22" cy="-134" rx="18" ry="18"/>
<ellipse fill="none" stroke="black" cx="22" cy="-134" rx="22" ry="22"/>
<text text-anchor="middle" x="22" y="-130.3" font-family="Helvetica,Arial,sans-serif" font-size="14.00">8</text>
</g>
<!-- 1&#45;&gt;4 -->
<g id="edge3" class="edge">
<title>1&#45;&gt;4</title>
<path fill="none" stroke="black" d="M225.5,-119.15C231.75,-114.99 239.17,-110.16 246,-106 254.82,-100.62 264.6,-95 273.44,-90.05"/>
<polygon fill="black" stroke="black" points="275.19,-93.08 282.23,-85.16 271.79,-86.96 275.19,-93.08"/>
<text text-anchor="middle" x="254" y="-109.8" font-family="Helvetica,Arial,sans-serif" font-size="14.00">1</text>
</g>
<!-- 1&#45;&gt;5 -->
<g id="edge2" class="edge">
<title>1&#45;&gt;5</title>
<path fill="none" stroke="black" d="M228.24,-127.31C255.74,-124.56 311.21,-118.71 358,-112 360.56,-111.63 363.23,-111.22 365.89,-110.8"/>
<polygon fill="black" stroke="black" points="366.65,-114.22 375.94,-109.12 365.5,-107.31 366.65,-114.22"/>
<text text-anchor="middle" x="302" y="-124.8" font-family="Helvetica,Arial,sans-serif" font-size="14.00">21</text>
</g>
<!-- 2&#45;&gt;4 -->
<g id="edge7" class="edge">
<title>2&#45;&gt;4</title>
<path fill="none" stroke="black" d="M227.14,-24.75C237.43,-29.34 250.89,-35.85 262,-43 267.1,-46.28 272.29,-50.12 277.15,-53.98"/>
<polygon fill="black" stroke="black" points="275,-56.75 284.94,-60.41 279.45,-51.35 275,-56.75"/>
<text text-anchor="middle" x="254" y="-46.8" font-family="Helvetica,Arial,sans-serif" font-size="14.00">12</text>
</g>
</g>
</svg>
