<?xml version="1.0" encoding="UTF-8" standalone="no"?>
<!DOCTYPE svg PUBLIC "-//W3C//DTD SVG 1.1//EN"
 "http://www.w3.org/Graphics/SVG/1.1/DTD/svg11.dtd">
<!-- Generated by graphviz version 2.43.0 (0)
 -->
<!-- Title: finite_state_machine Pages: 1 -->
<svg width="757pt" height="465pt"
 viewBox="0.00 0.00 757.00 465.00" xmlns="http://www.w3.org/2000/svg" xmlns:xlink="http://www.w3.org/1999/xlink">
<g id="graph0" class="graph" transform="scale(1 1) rotate(0) translate(4 461)">
<title>finite_state_machine</title>
<polygon fill="white" stroke="transparent" points="-4,4 -4,-461 753,-461 753,4 -4,4"/>
<!-- 8 -->
<g id="node1" class="node">
<title>8</title>
<ellipse fill="none" stroke="black" cx="18" cy="-54" rx="18" ry="18"/>
<text text-anchor="middle" x="18" y="-50.3" font-family="Helvetica,Arial,sans-serif" font-size="14.00">8</text>
</g>
<!-- 0 -->
<g id="node2" class="node">
<title>0</title>
<ellipse fill="none" stroke="black" cx="113" cy="-54" rx="18" ry="18"/>
<text text-anchor="middle" x="113" y="-50.3" font-family="Helvetica,Arial,sans-serif" font-size="14.00">0</text>
</g>
<!-- 8&#45;&gt;0 -->
<g id="edge1" class="edge">
<title>8&#45;&gt;0</title>
<path fill="none" stroke="black" d="M36.06,-54C49.61,-54 68.82,-54 84.53,-54"/>
<polygon fill="black" stroke="black" points="84.74,-57.5 94.74,-54 84.74,-50.5 84.74,-57.5"/>
<text text-anchor="middle" x="65.5" y="-57.8" font-family="Helvetica,Arial,sans-serif" font-size="14.00">464</text>
</g>
<!-- 0&#45;&gt;8 -->
<g id="edge23" class="edge">
<title>0&#45;&gt;8</title>
<path fill="none" stroke="black" d="M97.69,-44.13C91.6,-40.51 84.24,-36.84 77,-35 67.09,-32.48 63.91,-32.48 54,-35 50.04,-36.01 46.05,-37.56 42.24,-39.35"/>
<polygon fill="black" stroke="black" points="40.48,-36.33 33.31,-44.13 43.78,-42.5 40.48,-36.33"/>
<text text-anchor="middle" x="65.5" y="-38.8" font-family="Helvetica,Arial,sans-serif" font-size="14.00">464</text>
</g>
<!-- 5 -->
<g id="node8" class="node">
<title>5</title>
<ellipse fill="none" stroke="black" cx="628" cy="-102" rx="18" ry="18"/>
<text text-anchor="middle" x="628" y="-98.3" font-family="Helvetica,Arial,sans-serif" font-size="14.00">5</text>
</g>
<!-- 0&#45;&gt;5 -->
<g id="edge24" class="edge">
<title>0&#45;&gt;5</title>
<path fill="none" stroke="black" d="M130.67,-49.71C150.59,-44.97 185,-38 215,-38 215,-38 215,-38 526,-38 558.88,-38 589.73,-62.49 608.48,-81.18"/>
<polygon fill="black" stroke="black" points="606.3,-83.95 615.75,-88.74 611.34,-79.1 606.3,-83.95"/>
<text text-anchor="middle" x="370.5" y="-41.8" font-family="Helvetica,Arial,sans-serif" font-size="14.00">0</text>
</g>
<!-- 7 -->
<g id="node10" class="node">
<title>7</title>
<ellipse fill="none" stroke="black" cx="216" cy="-218" rx="18" ry="18"/>
<text text-anchor="middle" x="216" y="-214.3" font-family="Helvetica,Arial,sans-serif" font-size="14.00">7</text>
</g>
<!-- 0&#45;&gt;7 -->
<g id="edge25" class="edge">
<title>0&#45;&gt;7</title>
<path fill="none" stroke="black" d="M118.75,-71.43C124.31,-90.21 134.64,-120.55 149,-144 161.67,-164.68 180.39,-185.02 194.66,-199.12"/>
<polygon fill="black" stroke="black" points="192.44,-201.84 202.06,-206.28 197.3,-196.81 192.44,-201.84"/>
<text text-anchor="middle" x="164.5" y="-185.8" font-family="Helvetica,Arial,sans-serif" font-size="14.00">55</text>
</g>
<!-- 3 -->
<g id="node3" class="node">
<title>3</title>
<ellipse fill="none" stroke="black" cx="525" cy="-303" rx="18" ry="18"/>
<text text-anchor="middle" x="525" y="-299.3" font-family="Helvetica,Arial,sans-serif" font-size="14.00">3</text>
</g>
<!-- 9 -->
<g id="node4" class="node">
<title>9</title>
<ellipse fill="none" stroke="black" cx="422" cy="-260" rx="18" ry="18"/>
<text text-anchor="middle" x="422" y="-256.3" font-family="Helvetica,Arial,sans-serif" font-size="14.00">9</text>
</g>
<!-- 3&#45;&gt;9 -->
<g id="edge2" class="edge">
<title>3&#45;&gt;9</title>
<path fill="none" stroke="black" d="M506.91,-303.17C493.07,-302.68 473.42,-300.51 458,-293 451.89,-290.02 446.13,-285.61 441.11,-280.96"/>
<polygon fill="black" stroke="black" points="443.41,-278.31 433.89,-273.66 438.43,-283.23 443.41,-278.31"/>
<text text-anchor="middle" x="473.5" y="-304.8" font-family="Helvetica,Arial,sans-serif" font-size="14.00">620</text>
</g>
<!-- 6 -->
<g id="node5" class="node">
<title>6</title>
<ellipse fill="none" stroke="black" cx="628" cy="-338" rx="18" ry="18"/>
<text text-anchor="middle" x="628" y="-334.3" font-family="Helvetica,Arial,sans-serif" font-size="14.00">6</text>
</g>
<!-- 3&#45;&gt;6 -->
<g id="edge3" class="edge">
<title>3&#45;&gt;6</title>
<path fill="none" stroke="black" d="M542.38,-307.85C555.81,-311.91 575.25,-317.99 592,-324 595.14,-325.13 598.42,-326.36 601.66,-327.61"/>
<polygon fill="black" stroke="black" points="600.48,-330.91 611.06,-331.34 603.06,-324.4 600.48,-330.91"/>
<text text-anchor="middle" x="576.5" y="-327.8" font-family="Helvetica,Arial,sans-serif" font-size="14.00">866</text>
</g>
<!-- 9&#45;&gt;3 -->
<g id="edge9" class="edge">
<title>9&#45;&gt;3</title>
<path fill="none" stroke="black" d="M440,-261.34C453.77,-262.95 473.39,-266.45 489,-274 494.24,-276.53 499.36,-280.01 504.01,-283.69"/>
<polygon fill="black" stroke="black" points="501.89,-286.48 511.76,-290.34 506.45,-281.17 501.89,-286.48"/>
<text text-anchor="middle" x="473.5" y="-277.8" font-family="Helvetica,Arial,sans-serif" font-size="14.00">1486</text>
</g>
<!-- 4 -->
<g id="node7" class="node">
<title>4</title>
<ellipse fill="none" stroke="black" cx="525" cy="-187" rx="18" ry="18"/>
<text text-anchor="middle" x="525" y="-183.3" font-family="Helvetica,Arial,sans-serif" font-size="14.00">4</text>
</g>
<!-- 9&#45;&gt;4 -->
<g id="edge11" class="edge">
<title>9&#45;&gt;4</title>
<path fill="none" stroke="black" d="M437.79,-251.14C451.42,-242.79 472.04,-229.71 489,-217 493.72,-213.46 498.63,-209.47 503.22,-205.58"/>
<polygon fill="black" stroke="black" points="505.77,-208.01 511.04,-198.82 501.19,-202.71 505.77,-208.01"/>
<text text-anchor="middle" x="473.5" y="-240.8" font-family="Helvetica,Arial,sans-serif" font-size="14.00">1532</text>
</g>
<!-- 1 -->
<g id="node9" class="node">
<title>1</title>
<ellipse fill="none" stroke="black" cx="319" cy="-218" rx="18" ry="18"/>
<text text-anchor="middle" x="319" y="-214.3" font-family="Helvetica,Arial,sans-serif" font-size="14.00">1</text>
</g>
<!-- 9&#45;&gt;1 -->
<g id="edge10" class="edge">
<title>9&#45;&gt;1</title>
<path fill="none" stroke="black" d="M403.94,-260.11C390.12,-259.58 370.48,-257.39 355,-250 349.19,-247.23 343.67,-243.16 338.8,-238.86"/>
<polygon fill="black" stroke="black" points="340.89,-236.02 331.28,-231.57 336.02,-241.04 340.89,-236.02"/>
<text text-anchor="middle" x="370.5" y="-261.8" font-family="Helvetica,Arial,sans-serif" font-size="14.00">1048</text>
</g>
<!-- 6&#45;&gt;3 -->
<g id="edge6" class="edge">
<title>6&#45;&gt;3</title>
<path fill="none" stroke="black" d="M619.02,-321.86C613.09,-311.82 603.96,-299.77 592,-294 579.43,-287.93 564.03,-289.59 551.28,-293.04"/>
<polygon fill="black" stroke="black" points="550.19,-289.71 541.72,-296.07 552.31,-296.38 550.19,-289.71"/>
<text text-anchor="middle" x="576.5" y="-297.8" font-family="Helvetica,Arial,sans-serif" font-size="14.00">0</text>
</g>
<!-- 6&#45;&gt;1 -->
<g id="edge7" class="edge">
<title>6&#45;&gt;1</title>
<path fill="none" stroke="black" d="M609.91,-339.33C563.06,-342.03 430.98,-343.03 355,-277 344.61,-267.97 336.46,-255.06 330.65,-243.62"/>
<polygon fill="black" stroke="black" points="333.77,-242.01 326.33,-234.47 327.44,-245.01 333.77,-242.01"/>
<text text-anchor="middle" x="473.5" y="-336.8" font-family="Helvetica,Arial,sans-serif" font-size="14.00">550</text>
</g>
<!-- 6&#45;&gt;7 -->
<g id="edge8" class="edge">
<title>6&#45;&gt;7</title>
<path fill="none" stroke="black" d="M621.35,-354.81C615.76,-369.48 605.99,-390.59 592,-405 568.58,-429.13 559.63,-442 526,-442 318,-442 318,-442 318,-442 284.37,-442 271.61,-432.32 252,-405 234.04,-379.97 223.67,-292.12 219.36,-246.3"/>
<polygon fill="black" stroke="black" points="222.83,-245.79 218.45,-236.14 215.86,-246.42 222.83,-245.79"/>
<text text-anchor="middle" x="422" y="-445.8" font-family="Helvetica,Arial,sans-serif" font-size="14.00">1674</text>
</g>
<!-- 2 -->
<g id="node6" class="node">
<title>2</title>
<ellipse fill="none" stroke="black" cx="731" cy="-159" rx="18" ry="18"/>
<text text-anchor="middle" x="731" y="-155.3" font-family="Helvetica,Arial,sans-serif" font-size="14.00">2</text>
</g>
<!-- 2&#45;&gt;4 -->
<g id="edge4" class="edge">
<title>2&#45;&gt;4</title>
<path fill="none" stroke="black" d="M713.18,-163.71C687.37,-170.68 636.32,-183.39 592,-188 578.3,-189.42 574.78,-188.2 561,-188 558.45,-187.96 555.79,-187.91 553.13,-187.85"/>
<polygon fill="black" stroke="black" points="553.18,-184.35 543.09,-187.59 552.99,-191.35 553.18,-184.35"/>
<text text-anchor="middle" x="628" y="-188.8" font-family="Helvetica,Arial,sans-serif" font-size="14.00">960</text>
</g>
<!-- 2&#45;&gt;5 -->
<g id="edge5" class="edge">
<title>2&#45;&gt;5</title>
<path fill="none" stroke="black" d="M723.54,-142.38C717.93,-130.35 708.54,-114.88 695,-107 683.36,-100.23 668.55,-98.61 655.9,-98.84"/>
<polygon fill="black" stroke="black" points="655.7,-95.35 645.91,-99.4 656.09,-102.34 655.7,-95.35"/>
<text text-anchor="middle" x="679.5" y="-110.8" font-family="Helvetica,Arial,sans-serif" font-size="14.00">1458</text>
</g>
<!-- 4&#45;&gt;9 -->
<g id="edge13" class="edge">
<title>4&#45;&gt;9</title>
<path fill="none" stroke="black" d="M510.87,-175.8C496.81,-165.24 474.3,-152.59 458,-164 436.29,-179.19 428,-209.33 424.86,-231.81"/>
<polygon fill="black" stroke="black" points="421.37,-231.49 423.72,-241.82 428.33,-232.28 421.37,-231.49"/>
<text text-anchor="middle" x="473.5" y="-167.8" font-family="Helvetica,Arial,sans-serif" font-size="14.00">0</text>
</g>
<!-- 4&#45;&gt;2 -->
<g id="edge12" class="edge">
<title>4&#45;&gt;2</title>
<path fill="none" stroke="black" d="M541.27,-194.98C547.26,-197.72 554.29,-200.48 561,-202 597.85,-210.35 608.86,-210.95 646,-204 668.96,-199.7 674.55,-196.29 695,-185 699.49,-182.52 704.05,-179.54 708.33,-176.49"/>
<polygon fill="black" stroke="black" points="710.71,-179.07 716.61,-170.27 706.51,-173.47 710.71,-179.07"/>
<text text-anchor="middle" x="628" y="-211.8" font-family="Helvetica,Arial,sans-serif" font-size="14.00">1768</text>
</g>
<!-- 4&#45;&gt;5 -->
<g id="edge14" class="edge">
<title>4&#45;&gt;5</title>
<path fill="none" stroke="black" d="M534,-170.84C540.16,-159.67 549.56,-145.06 561,-135 572.73,-124.69 588.26,-116.71 601.31,-111.19"/>
<polygon fill="black" stroke="black" points="602.7,-114.4 610.7,-107.44 600.11,-107.9 602.7,-114.4"/>
<text text-anchor="middle" x="576.5" y="-138.8" font-family="Helvetica,Arial,sans-serif" font-size="14.00">1468</text>
</g>
<!-- 5&#45;&gt;0 -->
<g id="edge15" class="edge">
<title>5&#45;&gt;0</title>
<path fill="none" stroke="black" d="M623.35,-84.47C618.83,-66.93 609.5,-40.27 592,-24 569.14,-2.75 557.21,0 526,0 215,0 215,0 215,0 183.79,0 175.95,-8.26 149,-24 143.9,-26.98 138.84,-30.73 134.21,-34.56"/>
<polygon fill="black" stroke="black" points="131.63,-32.17 126.44,-41.4 136.26,-37.42 131.63,-32.17"/>
<text text-anchor="middle" x="370.5" y="-3.8" font-family="Helvetica,Arial,sans-serif" font-size="14.00">686</text>
</g>
<!-- 5&#45;&gt;2 -->
<g id="edge16" class="edge">
<title>5&#45;&gt;2</title>
<path fill="none" stroke="black" d="M643.97,-110.59C650.17,-114.14 657.42,-118.28 664,-122 677.94,-129.89 693.57,-138.66 706.12,-145.68"/>
<polygon fill="black" stroke="black" points="704.6,-148.84 715.04,-150.66 708.02,-142.73 704.6,-148.84"/>
<text text-anchor="middle" x="679.5" y="-142.8" font-family="Helvetica,Arial,sans-serif" font-size="14.00">650</text>
</g>
<!-- 5&#45;&gt;4 -->
<g id="edge17" class="edge">
<title>5&#45;&gt;4</title>
<path fill="none" stroke="black" d="M618.05,-117.62C611.71,-127.72 602.49,-140.69 592,-150 579.94,-160.7 564.28,-169.64 551.24,-176.06"/>
<polygon fill="black" stroke="black" points="549.44,-173.03 541.88,-180.45 552.42,-179.37 549.44,-173.03"/>
<text text-anchor="middle" x="576.5" y="-173.8" font-family="Helvetica,Arial,sans-serif" font-size="14.00">744</text>
</g>
<!-- 5&#45;&gt;1 -->
<g id="edge18" class="edge">
<title>5&#45;&gt;1</title>
<path fill="none" stroke="black" d="M611.16,-95.4C564.73,-77.24 427.66,-32.16 355,-100 330.29,-123.07 322.75,-162.69 320.6,-189.6"/>
<polygon fill="black" stroke="black" points="317.09,-189.73 319.99,-199.92 324.08,-190.14 317.09,-189.73"/>
<text text-anchor="middle" x="473.5" y="-68.8" font-family="Helvetica,Arial,sans-serif" font-size="14.00">1302</text>
</g>
<!-- 1&#45;&gt;9 -->
<g id="edge19" class="edge">
<title>1&#45;&gt;9</title>
<path fill="none" stroke="black" d="M336.99,-219.03C350.77,-220.4 370.39,-223.59 386,-231 391.26,-233.5 396.39,-236.96 401.03,-240.63"/>
<polygon fill="black" stroke="black" points="398.92,-243.43 408.79,-247.29 403.48,-238.12 398.92,-243.43"/>
<text text-anchor="middle" x="370.5" y="-234.8" font-family="Helvetica,Arial,sans-serif" font-size="14.00">0</text>
</g>
<!-- 1&#45;&gt;6 -->
<g id="edge20" class="edge">
<title>1&#45;&gt;6</title>
<path fill="none" stroke="black" d="M335.98,-211.28C366.71,-199.39 435.7,-177.74 489,-198 499,-201.8 498.89,-207.01 507,-214 544.29,-246.13 559.2,-248.3 592,-285 599.8,-293.72 607.14,-304.32 613.07,-313.74"/>
<polygon fill="black" stroke="black" points="610.1,-315.59 618.29,-322.31 616.08,-311.94 610.1,-315.59"/>
<text text-anchor="middle" x="473.5" y="-201.8" font-family="Helvetica,Arial,sans-serif" font-size="14.00">1358</text>
</g>
<!-- 1&#45;&gt;5 -->
<g id="edge21" class="edge">
<title>1&#45;&gt;5</title>
<path fill="none" stroke="black" d="M332.22,-205.54C338.63,-199.45 346.83,-192.31 355,-187 436.31,-134.14 466.27,-135.81 561,-115 573.88,-112.17 588.24,-109.31 600.27,-106.99"/>
<polygon fill="black" stroke="black" points="600.97,-110.42 610.14,-105.11 599.66,-103.54 600.97,-110.42"/>
<text text-anchor="middle" x="473.5" y="-140.8" font-family="Helvetica,Arial,sans-serif" font-size="14.00">456</text>
</g>
<!-- 1&#45;&gt;7 -->
<g id="edge22" class="edge">
<title>1&#45;&gt;7</title>
<path fill="none" stroke="black" d="M303.28,-208.46C297.25,-205.08 290.04,-201.7 283,-200 269.61,-196.76 265.39,-196.76 252,-200 248.26,-200.91 244.47,-202.28 240.84,-203.88"/>
<polygon fill="black" stroke="black" points="239.09,-200.85 231.72,-208.46 242.22,-207.1 239.09,-200.85"/>
<text text-anchor="middle" x="267.5" y="-203.8" font-family="Helvetica,Arial,sans-serif" font-size="14.00">1354</text>
</g>
<!-- 7&#45;&gt;0 -->
<g id="edge28" class="edge">
<title>7&#45;&gt;0</title>
<path fill="none" stroke="black" d="M210.65,-200.63C205.32,-181.22 195.08,-149.35 180,-125 167.59,-104.96 149,-85.59 134.71,-72.17"/>
<polygon fill="black" stroke="black" points="137.02,-69.53 127.28,-65.35 132.29,-74.69 137.02,-69.53"/>
<text text-anchor="middle" x="164.5" y="-128.8" font-family="Helvetica,Arial,sans-serif" font-size="14.00">2815</text>
</g>
<!-- 7&#45;&gt;6 -->
<g id="edge26" class="edge">
<title>7&#45;&gt;6</title>
<path fill="none" stroke="black" d="M218.94,-235.86C224.83,-280.06 246.7,-391 318,-391 318,-391 318,-391 526,-391 556.53,-391 586.92,-371.77 606.27,-356.48"/>
<polygon fill="black" stroke="black" points="608.61,-359.09 614.1,-350.03 604.15,-353.69 608.61,-359.09"/>
<text text-anchor="middle" x="422" y="-394.8" font-family="Helvetica,Arial,sans-serif" font-size="14.00">0</text>
</g>
<!-- 7&#45;&gt;1 -->
<g id="edge27" class="edge">
<title>7&#45;&gt;1</title>
<path fill="none" stroke="black" d="M234.13,-218C249.59,-218 272.58,-218 290.59,-218"/>
<polygon fill="black" stroke="black" points="290.78,-221.5 300.78,-218 290.78,-214.5 290.78,-221.5"/>
<text text-anchor="middle" x="267.5" y="-221.8" font-family="Helvetica,Arial,sans-serif" font-size="14.00">268</text>
</g>
</g>
</svg>
