<?xml version="1.0" encoding="UTF-8" standalone="no"?>
<!DOCTYPE svg PUBLIC "-//W3C//DTD SVG 1.1//EN"
 "http://www.w3.org/Graphics/SVG/1.1/DTD/svg11.dtd">
<!-- Generated by graphviz version 2.43.0 (0)
 -->
<!-- Title: finite_state_machine Pages: 1 -->
<svg width="476pt" height="273pt"
 viewBox="0.00 0.00 476.00 273.00" xmlns="http://www.w3.org/2000/svg" xmlns:xlink="http://www.w3.org/1999/xlink">
<g id="graph0" class="graph" transform="scale(1 1) rotate(0) translate(4 269)">
<title>finite_state_machine</title>
<polygon fill="white" stroke="transparent" points="-4,4 -4,-269 472,-269 472,4 -4,4"/>
<!-- 2 -->
<g id="node1" class="node">
<title>2</title>
<ellipse fill="none" stroke="black" cx="18" cy="-46" rx="18" ry="18"/>
<text text-anchor="middle" x="18" y="-42.3" font-family="Helvetica,Arial,sans-serif" font-size="14.00">2</text>
</g>
<!-- 4 -->
<g id="node2" class="node">
<title>4</title>
<ellipse fill="none" stroke="black" cx="106" cy="-160" rx="18" ry="18"/>
<text text-anchor="middle" x="106" y="-156.3" font-family="Helvetica,Arial,sans-serif" font-size="14.00">4</text>
</g>
<!-- 2&#45;&gt;4 -->
<g id="edge1" class="edge">
<title>2&#45;&gt;4</title>
<path fill="none" stroke="black" d="M29.55,-59.98C44.18,-79.38 70.81,-114.68 88.2,-137.73"/>
<polygon fill="black" stroke="black" points="85.55,-140.03 94.37,-145.91 91.14,-135.82 85.55,-140.03"/>
<text text-anchor="middle" x="62" y="-116.8" font-family="Helvetica,Arial,sans-serif" font-size="14.00">12</text>
</g>
<!-- 5 -->
<g id="node3" class="node">
<title>5</title>
<ellipse fill="none" stroke="black" cx="194" cy="-247" rx="18" ry="18"/>
<text text-anchor="middle" x="194" y="-243.3" font-family="Helvetica,Arial,sans-serif" font-size="14.00">5</text>
</g>
<!-- 4&#45;&gt;5 -->
<g id="edge4" class="edge">
<title>4&#45;&gt;5</title>
<path fill="none" stroke="black" d="M111.3,-177.34C116.16,-193.44 125.62,-216.96 142,-231 148.71,-236.75 157.49,-240.44 165.87,-242.8"/>
<polygon fill="black" stroke="black" points="165.19,-246.24 175.73,-245.07 166.77,-239.42 165.19,-246.24"/>
<text text-anchor="middle" x="150" y="-242.8" font-family="Helvetica,Arial,sans-serif" font-size="14.00">13</text>
</g>
<!-- 1 -->
<g id="node4" class="node">
<title>1</title>
<ellipse fill="none" stroke="black" cx="282" cy="-187" rx="18" ry="18"/>
<text text-anchor="middle" x="282" y="-183.3" font-family="Helvetica,Arial,sans-serif" font-size="14.00">1</text>
</g>
<!-- 4&#45;&gt;1 -->
<g id="edge5" class="edge">
<title>4&#45;&gt;1</title>
<path fill="none" stroke="black" d="M123.27,-154.79C144.14,-148.9 181.29,-141.1 212,-149 228.63,-153.28 245.54,-162.5 258.46,-170.78"/>
<polygon fill="black" stroke="black" points="256.84,-173.91 267.1,-176.57 260.74,-168.1 256.84,-173.91"/>
<text text-anchor="middle" x="194" y="-152.8" font-family="Helvetica,Arial,sans-serif" font-size="14.00">1</text>
</g>
<!-- 5&#45;&gt;4 -->
<g id="edge3" class="edge">
<title>5&#45;&gt;4</title>
<path fill="none" stroke="black" d="M180.29,-234.8C169.9,-224.76 154.86,-210.09 142,-197 136.75,-191.66 131.15,-185.81 126,-180.36"/>
<polygon fill="black" stroke="black" points="128.27,-177.67 118.87,-172.78 123.17,-182.47 128.27,-177.67"/>
<text text-anchor="middle" x="150" y="-215.8" font-family="Helvetica,Arial,sans-serif" font-size="14.00">1</text>
</g>
<!-- 5&#45;&gt;1 -->
<g id="edge2" class="edge">
<title>5&#45;&gt;1</title>
<path fill="none" stroke="black" d="M208.43,-236.22C214.86,-231.17 222.73,-225.14 230,-220 238.82,-213.76 248.74,-207.23 257.48,-201.64"/>
<polygon fill="black" stroke="black" points="259.48,-204.52 266.06,-196.21 255.73,-198.61 259.48,-204.52"/>
<text text-anchor="middle" x="238" y="-223.8" font-family="Helvetica,Arial,sans-serif" font-size="14.00">7</text>
</g>
<!-- 1&#45;&gt;4 -->
<g id="edge8" class="edge">
<title>1&#45;&gt;4</title>
<path fill="none" stroke="black" d="M264.19,-184.39C233.97,-179.7 170.26,-169.82 133.91,-164.18"/>
<polygon fill="black" stroke="black" points="134.42,-160.71 124,-162.64 133.35,-167.63 134.42,-160.71"/>
<text text-anchor="middle" x="194" y="-179.8" font-family="Helvetica,Arial,sans-serif" font-size="14.00">0</text>
</g>
<!-- 1&#45;&gt;5 -->
<g id="edge6" class="edge">
<title>1&#45;&gt;5</title>
<path fill="none" stroke="black" d="M273.11,-203.18C267.1,-213.8 257.86,-227.13 246,-235 238.97,-239.67 230.33,-242.53 222.18,-244.28"/>
<polygon fill="black" stroke="black" points="221.54,-240.84 212.26,-245.95 222.71,-247.74 221.54,-240.84"/>
<text text-anchor="middle" x="238" y="-245.8" font-family="Helvetica,Arial,sans-serif" font-size="14.00">14</text>
</g>
<!-- 0 -->
<g id="node5" class="node">
<title>0</title>
<ellipse fill="none" stroke="black" cx="450" cy="-146" rx="18" ry="18"/>
<text text-anchor="middle" x="450" y="-142.3" font-family="Helvetica,Arial,sans-serif" font-size="14.00">0</text>
</g>
<!-- 1&#45;&gt;0 -->
<g id="edge7" class="edge">
<title>1&#45;&gt;0</title>
<path fill="none" stroke="black" d="M292.54,-172.29C304.22,-155.92 325.73,-130.62 352,-122 376.51,-113.96 405.26,-123.35 425.07,-132.64"/>
<polygon fill="black" stroke="black" points="423.51,-135.77 434.02,-137.12 426.64,-129.51 423.51,-135.77"/>
<text text-anchor="middle" x="370" y="-125.8" font-family="Helvetica,Arial,sans-serif" font-size="14.00">7</text>
</g>
<!-- 3 -->
<g id="node6" class="node">
<title>3</title>
<ellipse fill="none" stroke="black" cx="370" cy="-164" rx="18" ry="18"/>
<text text-anchor="middle" x="370" y="-160.3" font-family="Helvetica,Arial,sans-serif" font-size="14.00">3</text>
</g>
<!-- 1&#45;&gt;3 -->
<g id="edge9" class="edge">
<title>1&#45;&gt;3</title>
<path fill="none" stroke="black" d="M299.58,-182.57C311.72,-179.32 328.44,-174.85 342.42,-171.11"/>
<polygon fill="black" stroke="black" points="343.71,-174.39 352.47,-168.42 341.9,-167.62 343.71,-174.39"/>
<text text-anchor="middle" x="326" y="-180.8" font-family="Helvetica,Arial,sans-serif" font-size="14.00">1</text>
</g>
<!-- 0&#45;&gt;2 -->
<g id="edge10" class="edge">
<title>0&#45;&gt;2</title>
<path fill="none" stroke="black" d="M447.69,-128.1C443.75,-89.11 428.48,0 371,0 105,0 105,0 105,0 80.34,0 55.91,-14.88 39.43,-27.72"/>
<polygon fill="black" stroke="black" points="37.09,-25.11 31.57,-34.15 41.52,-30.52 37.09,-25.11"/>
<text text-anchor="middle" x="238" y="-3.8" font-family="Helvetica,Arial,sans-serif" font-size="14.00">8</text>
</g>
<!-- 0&#45;&gt;1 -->
<g id="edge11" class="edge">
<title>0&#45;&gt;1</title>
<path fill="none" stroke="black" d="M438.26,-159.86C431.89,-167.29 423.27,-176.11 414,-182 403.68,-188.56 399.95,-188.42 388,-191 381.71,-192.36 338.25,-198.56 318,-196 315.24,-195.65 312.38,-195.15 309.54,-194.56"/>
<polygon fill="black" stroke="black" points="310.11,-191.1 299.57,-192.17 308.48,-197.91 310.11,-191.1"/>
<text text-anchor="middle" x="370" y="-198.8" font-family="Helvetica,Arial,sans-serif" font-size="14.00">0</text>
</g>
<!-- 0&#45;&gt;3 -->
<g id="edge12" class="edge">
<title>0&#45;&gt;3</title>
<path fill="none" stroke="black" d="M433.78,-154.49C427.8,-157.42 420.75,-160.36 414,-162 409.08,-163.19 403.76,-163.89 398.59,-164.28"/>
<polygon fill="black" stroke="black" points="398.22,-160.79 388.37,-164.69 398.5,-167.78 398.22,-160.79"/>
<text text-anchor="middle" x="410" y="-166.8" font-family="Helvetica,Arial,sans-serif" font-size="14.00">9</text>
</g>
<!-- 3&#45;&gt;2 -->
<g id="edge13" class="edge">
<title>3&#45;&gt;2</title>
<path fill="none" stroke="black" d="M358.55,-149.9C356.38,-146.96 354.11,-143.88 352,-141 321.16,-98.91 335.18,-46 283,-46 105,-46 105,-46 105,-46 85.4,-46 63.3,-46 46.4,-46"/>
<polygon fill="black" stroke="black" points="46.13,-42.5 36.13,-46 46.13,-49.5 46.13,-42.5"/>
<text text-anchor="middle" x="194" y="-49.8" font-family="Helvetica,Arial,sans-serif" font-size="14.00">2</text>
</g>
<!-- 3&#45;&gt;4 -->
<g id="edge14" class="edge">
<title>3&#45;&gt;4</title>
<path fill="none" stroke="black" d="M354.1,-155.43C348.05,-152.3 340.87,-149.04 334,-147 252.17,-122.74 224.36,-120.58 142,-143 138.33,-144 134.58,-145.38 130.96,-146.93"/>
<polygon fill="black" stroke="black" points="129.38,-143.81 121.85,-151.27 132.38,-150.13 129.38,-143.81"/>
<text text-anchor="middle" x="238" y="-130.8" font-family="Helvetica,Arial,sans-serif" font-size="14.00">5</text>
</g>
<!-- 3&#45;&gt;1 -->
<g id="edge15" class="edge">
<title>3&#45;&gt;1</title>
<path fill="none" stroke="black" d="M353.41,-156.48C343.09,-152.58 329.4,-149.47 318,-154 311.68,-156.51 305.85,-160.76 300.82,-165.38"/>
<polygon fill="black" stroke="black" points="298.1,-163.16 293.64,-172.78 303.12,-168.04 298.1,-163.16"/>
<text text-anchor="middle" x="326" y="-157.8" font-family="Helvetica,Arial,sans-serif" font-size="14.00">10</text>
</g>
<!-- 3&#45;&gt;0 -->
<g id="edge16" class="edge">
<title>3&#45;&gt;0</title>
<path fill="none" stroke="black" d="M384.84,-153.33C390.97,-149.25 398.49,-145.08 406,-143 410.97,-141.62 416.37,-141.21 421.62,-141.33"/>
<polygon fill="black" stroke="black" points="421.73,-144.85 431.99,-142.21 422.32,-137.88 421.73,-144.85"/>
<text text-anchor="middle" x="410" y="-146.8" font-family="Helvetica,Arial,sans-serif" font-size="14.00">1</text>
</g>
</g>
</svg>
